HIERARCHY
ROOT Hips
{
 OFFSET 0.000000 0.000000 0.000000
 CHANNELS 6 Xposition Yposition Zposition Yrotation Xrotation Zrotation
 JOINT Chest
 {
  OFFSET 0.000000 9.585900 0.002600
  CHANNELS 3 Yrotation Xrotation Zrotation
  JOINT Chest2
  {
   OFFSET 0.000000 9.601200 -0.005300
   CHANNELS 3 Yrotation Xrotation Zrotation
   JOINT Chest3
   {
    OFFSET 0.000000 9.561800 0.000000
    CHANNELS 3 Yrotation Xrotation Zrotation
    JOINT Chest4
    {
     OFFSET 0.000000 9.552100 0.000000
     CHANNELS 3 Yrotation Xrotation Zrotation
     JOINT Neck
     {
      OFFSET 0.000000 14.453000 0.000000
      CHANNELS 3 Yrotation Xrotation Zrotation
      JOINT Head
      {
       OFFSET 0.000000 8.936500 -0.011300
       CHANNELS 3 Yrotation Xrotation Zrotation
       End Site
       {
        OFFSET 0.000000 17.073600 -0.006000
       }
      }
     }
     JOINT RightCollar
     {
      OFFSET -2.921100 9.558500 0.000000
      CHANNELS 3 Yrotation Xrotation Zrotation
      JOINT RightShoulder
      {
       OFFSET -13.519700 0.000000 0.000000
       CHANNELS 3 Yrotation Xrotation Zrotation
       JOINT RightElbow
       {
        OFFSET 0.000000 -29.696600 0.000000
        CHANNELS 3 Yrotation Xrotation Zrotation
        JOINT RightWrist
        {
         OFFSET 0.000000 -24.004700 0.000000
         CHANNELS 3 Yrotation Xrotation Zrotation
         End Site
         {
          OFFSET 0.000000 -17.728500 0.000000
         }
        }
       }
      }
     }
     JOINT LeftCollar
     {
      OFFSET 2.921100 9.558500 0.000000
      CHANNELS 3 Yrotation Xrotation Zrotation
      JOINT LeftShoulder
      {
       OFFSET 13.519700 0.000000 0.000000
       CHANNELS 3 Yrotation Xrotation Zrotation
       JOINT LeftElbow
       {
        OFFSET 0.000000 -29.696600 0.000000
        CHANNELS 3 Yrotation Xrotation Zrotation
        JOINT LeftWrist
        {
         OFFSET 0.000000 -24.004700 0.000000
         CHANNELS 3 Yrotation Xrotation Zrotation
         End Site
         {
          OFFSET 0.000000 -17.728500 0.000000
         }
        }
       }
      }
     }
    }
   }
  }
 }
 JOINT RightHip
 {
  OFFSET -7.771700 -0.012900 -0.001300
  CHANNELS 3 Yrotation Xrotation Zrotation
  JOINT RightKnee
  {
   OFFSET 0.000000 -40.869800 0.001200
   CHANNELS 3 Yrotation Xrotation Zrotation
   JOINT RightAnkle
   {
    OFFSET 0.000000 -39.717900 0.002100
    CHANNELS 3 Yrotation Xrotation Zrotation
    JOINT RightToe
    {
     OFFSET 0.000000 -4.965400 11.033500
     CHANNELS 3 Yrotation Xrotation Zrotation
     End Site
     {
      OFFSET 0.000000 -1.423100 5.872300
     }
    }
   }
  }
 }
 JOINT LeftHip
 {
  OFFSET 7.771700 -0.012900 -0.001300
  CHANNELS 3 Yrotation Xrotation Zrotation
  JOINT LeftKnee
  {
   OFFSET 0.000000 -40.869800 0.001200
   CHANNELS 3 Yrotation Xrotation Zrotation
   JOINT LeftAnkle
   {
    OFFSET 0.000000 -39.717900 0.002100
    CHANNELS 3 Yrotation Xrotation Zrotation
    JOINT LeftToe
    {
     OFFSET 0.000000 -4.965400 11.033500
     CHANNELS 3 Yrotation Xrotation Zrotation
     End Site
     {
      OFFSET 0.000000 -1.423100 5.872300
     }
    }
   }
  }
 }
}
MOTION
Frames: 11
Frame Time: 0.008333
0.000000 85.388000 0.000000 0.000000 -5.767877 0.000000 0.000000 11.653817 0.000000 0.000000 -5.885947 0.000000 0.000000 -0.000000 0.000000 0.000000 -0.000000 0.000000 0.000000 12.528835 0.000000 0.000000 0.711642 0.000000 0.000000 -0.000000 0.000000 0.000000 0.000000 -90.000000 0.000000 -2.309062 0.000000 0.000000 2.309062 0.000000 0.000000 -0.000000 0.000000 0.000000 -0.000000 90.000000 0.000000 -2.309062 0.000000 0.000000 2.309062 0.000000 0.000000 8.520406 0.000000 0.000000 1.905762 0.000000 -0.000000 -4.658285 0.000000 0.000000 -0.000000 0.000000 0.000000 8.520406 0.000000 0.000000 1.905762 0.000000 -0.000000 -4.658285 0.000000 0.000000 -0.000000 0.000000
-115.635349 46.759763 -36.682776 173.805337 -30.946667 -3.263717 0.172734 17.700799 3.278078 -0.096905 1.937374 0.365670 -0.081321 3.247418 0.608875 -0.076257 15.463803 2.916626 -3.639399 9.413382 7.335195 -10.628684 -17.333918 15.995683 -1.143172 -7.998934 -9.353515 -3.937554 -2.823339 -10.558015 -73.847020 -54.539908 118.022059 2.912851 5.429225 6.497166 -3.960119 -9.143386 8.065793 4.824143 -2.361961 9.629362 71.818636 -47.772887 -114.953038 -6.145785 9.287006 -20.359699 -2.633051 -55.381815 -3.181268 -151.453069 76.645901 -142.187279 -12.839118 -15.268900 -5.387645 0.011528 -0.137437 0.044962 -2.272341 -58.033373 13.262521 -117.231712 83.525163 -120.619354 8.809094 -6.565432 5.023638 -0.005815 0.137465 -0.033931
-115.632569 46.760958 -36.679911 173.802847 -30.950502 -3.257326 0.126282 17.687095 3.257271 -0.100769 1.933833 0.362269 -0.059303 3.257256 0.610033 -0.128228 15.441200 2.907272 -3.675612 9.486637 7.334853 -10.539798 -17.217966 15.947300 -1.193818 -7.916854 -9.366481 -4.227230 -2.783391 -10.567684 -73.962741 -54.622108 117.798375 2.913757 5.366384 6.757208 -3.972610 -9.135620 7.979988 5.329848 -2.206923 9.779587 72.146323 -47.898596 -114.905747 -5.916968 9.199983 -20.483140 -2.628016 -55.378660 -3.186845 -151.441893 76.648033 -142.174821 -12.827027 -15.266880 -5.395583 0.028984 -0.140326 0.032228 -2.290490 -58.022133 13.269147 -117.165902 83.530417 -120.559766 8.823031 -6.562798 5.015712 0.004408 0.138973 -0.023233
-115.628263 46.762397 -36.676468 173.789229 -30.956611 -3.252284 0.092572 17.674463 3.241049 -0.109287 1.931841 0.361218 -0.033171 3.266209 0.610829 -0.185070 15.421598 2.896932 -3.673484 9.577229 7.323782 -10.468342 -17.073445 15.896933 -1.240489 -7.837614 -9.369057 -4.547462 -2.743973 -10.588744 -74.068602 -54.713072 117.540691 2.909534 5.291008 7.034245 -3.977583 -9.124044 7.883321 5.860680 -2.052514 9.946266 72.483309 -48.016210 -114.834688 -5.687516 9.111021 -20.622048 -2.619599 -55.377157 -3.179888 -151.438425 76.649110 -142.163291 -12.830412 -15.258600 -5.410053 0.045194 -0.147387 0.031648 -2.318870 -58.007428 13.296701 -117.080673 83.534602 -120.480116 8.834333 -6.557391 5.000693 0.001024 0.139710 -0.018115
-115.622234 46.764122 -36.672647 173.769054 -30.965930 -3.253713 0.002469 17.649769 3.209591 -0.062601 1.950414 0.364204 -0.097099 3.236237 0.603483 -0.105561 15.457812 2.896482 -3.663165 9.623631 7.315522 -10.428032 -16.863839 15.814784 -1.330775 -7.779603 -9.351007 -4.897444 -2.711317 -10.628851 -74.157074 -54.813906 117.246250 2.897940 5.199310 7.320348 -4.008503 -9.122712 7.783186 6.417120 -1.904661 10.124588 72.823953 -48.127106 -114.733451 -5.469958 9.022129 -20.791548 -2.619822 -55.368076 -3.154846 -151.439731 76.654904 -142.154941 -12.816371 -15.257494 -5.433519 0.037095 -0.146689 0.034927 -2.366178 -57.988188 13.350768 -116.956789 83.531523 -120.362628 8.840880 -6.548298 4.991585 0.008539 0.138294 -0.024957
-115.617822 46.765696 -36.668591 173.753516 -30.975353 -3.249058 -0.046781 17.642408 3.184471 -0.066597 1.947911 0.362712 -0.103781 3.232265 0.600947 -0.162672 15.443380 2.879712 -3.627579 9.766464 7.272771 -10.315760 -16.673484 15.711221 -1.347891 -7.690674 -9.319863 -5.274826 -2.694788 -10.689042 -74.224085 -54.927852 116.914491 2.880399 5.093348 7.610009 -3.936735 -9.078400 7.665733 6.997998 -1.774198 10.307184 73.163626 -48.251709 -114.599612 -5.265513 8.932544 -20.979773 -2.610862 -55.360675 -3.149127 -151.460260 76.662013 -142.165309 -12.827710 -15.257351 -5.440357 0.041237 -0.146787 0.030352 -2.381850 -57.973262 13.371806 -116.840780 83.526998 -120.246246 8.860142 -6.538545 4.982639 0.000832 0.135072 -0.027912
-115.611862 46.767340 -36.664045 173.713218 -30.987306 -3.243507 -0.074856 17.631567 3.168604 -0.070843 1.945233 0.361252 -0.110934 3.228100 0.598367 -0.226627 15.426767 2.859456 -3.584770 9.929231 7.207802 -10.179752 -16.460385 15.570374 -1.366122 -7.590408 -9.263950 -5.673542 -2.702764 -10.767382 -74.265146 -55.061708 116.534264 2.860257 4.974014 7.897148 -3.833262 -9.008985 7.532878 7.602560 -1.670784 10.495972 73.498170 -48.402315 -114.427410 -5.078763 8.840709 -21.169982 -2.630915 -55.354414 -3.101681 -151.506552 76.678973 -142.212241 -12.844231 -15.247980 -5.457467 0.025117 -0.152096 0.025990 -2.395339 -57.955656 13.416712 -116.723539 83.520292 -120.130798 8.887534 -6.529833 4.973155 -0.009386 0.131864 -0.025829
-115.607257 46.768616 -36.659050 173.698138 -30.996547 -3.246396 -0.127774 17.614880 3.146393 -0.075332 1.942616 0.359990 -0.118491 3.223901 0.596209 -0.264881 15.418598 2.847026 -3.542391 10.077112 7.128505 -10.036587 -16.208332 15.373161 -1.418710 -7.490260 -9.176832 -6.082876 -2.743699 -10.865106 -74.283813 -55.225072 116.092533 2.836107 4.841142 8.174531 -3.730368 -8.925659 7.371816 8.228771 -1.605893 10.702099 73.824516 -48.579853 -114.210680 -4.912049 8.752159 -21.350374 -2.659902 -55.347629 -3.064193 -151.524808 76.691693 -142.230405 -12.854713 -15.243135 -5.472714 0.038233 -0.157025 0.020522 -2.441222 -57.935150 13.466497 -116.631027 83.527232 -120.052002 8.908685 -6.530990 4.963530 0.019990 0.138323 -0.020641
-115.603466 46.768957 -36.652598 173.691626 -30.996926 -3.253664 -0.188984 17.588905 3.122441 -0.044751 1.955828 0.366722 -0.162546 3.202115 0.587493 -0.306879 15.408160 2.835297 -3.490185 10.241918 7.025053 -9.861900 -15.930089 15.123096 -1.474371 -7.378686 -9.051266 -6.496576 -2.821361 -10.985362 -74.289975 -55.426134 115.585933 2.801581 4.693629 8.434054 -3.599452 -8.814690 7.178208 8.873384 -1.594919 10.935068 74.129163 -48.772709 -113.942557 -4.758430 8.668957 -21.498030 -2.702485 -55.348718 -3.019448 -151.522932 76.704038 -142.234520 -12.860863 -15.240838 -5.487785 0.034669 -0.155736 0.019991 -2.486913 -57.925040 13.508819 -116.479213 83.535460 -119.898350 8.887718 -6.517711 4.967632 0.054180 0.143745 -0.033348
-115.599552 46.771000 -36.649054 173.667844 -31.019884 -3.255187 -0.234126 17.585949 3.099965 -0.013262 1.967533 0.374702 -0.208767 3.179157 0.577151 -0.352677 15.394215 2.822476 -3.424616 10.425826 6.896171 -9.648162 -15.622128 14.816275 -1.533424 -7.254894 -8.886096 -6.914482 -2.939004 -11.131362 -74.278136 -55.662939 115.010274 2.748683 4.528780 8.662069 -3.439543 -8.672047 6.955248 9.540102 -1.649221 11.205013 74.381117 -48.943544 -113.608573 -4.611284 8.586809 -21.595156 -2.716320 -55.326451 -2.981832 -151.510781 76.711418 -142.224666 -12.862010 -15.237005 -5.491751 0.031825 -0.156803 0.014769 -2.547483 -57.878733 13.572866 -116.365900 83.557740 -119.805061 8.882979 -6.528597 4.964143 0.019854 0.161279 -0.027599
-115.596306 46.771991 -36.644072 173.659579 -31.031598 -3.266398 -0.296558 17.573032 3.075747 -0.013900 1.963425 0.375348 -0.223407 3.169705 0.572673 -0.401086 15.376899 2.808964 -3.340658 10.630102 6.739039 -9.385018 -15.283047 14.445464 -1.602283 -7.116261 -8.685133 -7.338564 -3.107725 -11.307868 -74.215917 -55.913715 114.350176 2.671954 4.346380 8.837926 -3.247879 -8.500426 6.707644 10.234000 -1.771152 11.517318 74.546770 -49.064576 -113.191437 -4.463425 8.510171 -21.633298 -2.775394 -55.313606 -2.917817 -151.480817 76.720117 -142.211958 -12.869056 -15.236928 -5.492570 0.029146 -0.154568 0.008552 -2.589371 -57.857387 13.614368 -116.336564 83.574504 -119.776846 8.877336 -6.531102 4.953376 0.021558 0.169615 -0.025353
